<svg class="animated" id="freepik_stories-personal-data" xmlns="http://www.w3.org/2000/svg" viewBox="0 0 500 500" version="1.1" xmlns:xlink="http://www.w3.org/1999/xlink" xmlns:svgjs="http://svgjs.com/svgjs"><style>svg#freepik_stories-personal-data:not(.animated) .animable {opacity: 0;}svg#freepik_stories-personal-data.animated #freepik--Income--inject-20 {animation: 1.6s 1 forwards cubic-bezier(.36,-0.01,.5,1.38) slideUp;animation-delay: 2.5s;opacity: 0}svg#freepik_stories-personal-data.animated #freepik--health-information--inject-20 {animation: 1.6s 1 forwards cubic-bezier(.36,-0.01,.5,1.38) slideRight;animation-delay: 1.5s;opacity: 0}svg#freepik_stories-personal-data.animated #freepik--Email--inject-20 {animation: 1.5s 1 forwards cubic-bezier(.36,-0.01,.5,1.38) slideDown;animation-delay: 0.5s;opacity: 0}svg#freepik_stories-personal-data.animated #freepik--Localisation--inject-20 {animation: 1.6s 1 forwards cubic-bezier(.36,-0.01,.5,1.38) slideUp;animation-delay: 2.0s;opacity: 0}svg#freepik_stories-personal-data.animated #freepik--phone-number--inject-20 {animation: 1.6s 1 forwards cubic-bezier(.36,-0.01,.5,1.38) slideLeft;animation-delay: 1.0s;opacity: 0}svg#freepik_stories-personal-data.animated #freepik--online-identifier--inject-20 {animation: 1.5s 1 forwards cubic-bezier(.36,-0.01,.5,1.38) slideDown;animation-delay: 0s;}            @keyframes slideUp {                0% {                    opacity: 0;                    transform: translateY(30px);                }                100% {                    opacity: 1;                    transform: inherit;                }            }                    @keyframes slideRight {                0% {                    opacity: 0;                    transform: translateX(30px);                }                100% {                    opacity: 1;                    transform: translateX(0);                }            }                    @keyframes slideDown {                0% {                    opacity: 0;                    transform: translateY(-30px);                }                100% {                    opacity: 1;                    transform: translateY(0);                }            }                    @keyframes slideLeft {                0% {                    opacity: 0;                    transform: translateX(-30px);                }                100% {                    opacity: 1;                    transform: translateX(0);                }            }        </style><g id="freepik--Floor--inject-20" class="animable" style="transform-origin: 250px 465.29px;"><polygon points="46.23 465.29 97.17 465.05 148.11 464.96 250 464.79 351.89 464.96 402.83 465.05 453.77 465.29 402.83 465.54 351.89 465.62 250 465.79 148.11 465.62 97.17 465.54 46.23 465.29" style="fill: rgb(38, 50, 56); transform-origin: 250px 465.29px;" id="elx4pktq2i4y" class="animable"></polygon></g><g id="freepik--Income--inject-20" class="animable animator-active" style="transform-origin: 362.341px 360.024px;"><g id="elzvyl8dc2de"><rect x="332.9" y="342.59" width="71.32" height="71.32" style="fill: rgb(255, 188, 0); transform-origin: 368.56px 378.25px; transform: rotate(180deg);" class="animable"></rect></g><rect x="327.95" y="342.59" width="4.94" height="71.32" style="fill: rgb(255, 188, 0); transform-origin: 330.42px 378.25px;" id="ell28mfsq60w" class="animable"></rect><g id="elb77m21kswbo"><rect x="327.95" y="342.59" width="4.94" height="71.32" style="opacity: 0.1; transform-origin: 330.42px 378.25px;" class="animable"></rect></g><path d="M368.55,355.14c-32.5,0-32.55,46.22,0,46.22S401.11,355.14,368.55,355.14Z" style="fill: rgb(255, 255, 255); transform-origin: 368.561px 378.25px;" id="el5j0jsm6qg2" class="animable"></path><path d="M388.32,382.58c-1.74,7.95-8.33,14.85-19.77,14.85-27,0-27-38.36,0-38.36h.53c-25.39.47-25.26,36.79.5,36.79C380.08,395.87,386.34,389.79,388.32,382.58Z" style="fill: rgb(255, 188, 0); transform-origin: 368.31px 378.25px;" id="elg1mzo0vmve7" class="animable"></path><path d="M368.75,364.13a.82.82,0,0,1,.84.77v1.29a12,12,0,0,1,6.26,2.25c.32.23.49.42.49.74a.86.86,0,0,1-.91.8.94.94,0,0,1-.64-.22,10.42,10.42,0,0,0-5.27-2.09v9c5.34,1,7.59,2.86,7.59,6,0,3.41-3.12,5.83-7.52,6v2.5a.85.85,0,0,1-1.69,0v-2.54a13.79,13.79,0,0,1-7.91-3.12.82.82,0,0,1-.39-.67.89.89,0,0,1,.88-.81.94.94,0,0,1,.64.23,11.87,11.87,0,0,0,6.85,2.93V378c-5.27-1.07-7.45-2.84-7.45-6.05s3.09-5.73,7.38-5.83V364.9A.82.82,0,0,1,368.75,364.13ZM368,376.36v-8.79c-3.41.07-5.66,1.93-5.66,4.25S363.44,375.36,368,376.36Zm1.55,2v8.88c3.52-.07,5.8-1.93,5.8-4.38C375.32,380.6,374.09,379.25,369.52,378.32Z" style="fill: rgb(255, 188, 0); transform-origin: 368.355px 378.029px;" id="eleorkxpdd7h" class="animable"></path><rect x="365.36" y="337.3" width="1" height="1.5" style="fill: rgb(255, 188, 0); transform-origin: 365.86px 338.05px;" id="el49rm73alagu" class="animable"></rect><path d="M366.36,334.4h-1v-2.91h1Zm0-5.81h-1v-2.91h1Z" style="fill: rgb(255, 188, 0); transform-origin: 365.86px 330.04px;" id="elo02u42muwpc" class="animable"></path><polygon points="366.36 322.78 365.36 322.78 365.36 321.65 364.28 321.32 364.57 320.36 366.36 320.91 366.36 322.78" style="fill: rgb(255, 188, 0); transform-origin: 365.32px 321.57px;" id="elw2b6utzys0s" class="animable"></polygon><path d="M361.57,320.49l-2.72-.83.29-1,2.72.82Zm-5.44-1.65-2.71-.83.29-1,2.72.83Zm-5.43-1.66-2.71-.83.29-1,2.71.82Zm-5.43-1.65-2.72-.83.3-1,2.71.83Zm-5.43-1.66-2.72-.83.29-1,2.72.83Zm-5.43-1.65-2.72-.83.29-1,2.72.83ZM329,310.56l-2.71-.82.29-1,2.72.83Z" style="fill: rgb(255, 188, 0); transform-origin: 344.075px 314.615px;" id="elb1gkem96boo" class="animable"></path><g id="elpv6y6ycbnie"><rect x="322.47" y="307.46" width="1" height="1.5" style="fill: rgb(255, 188, 0); transform-origin: 322.97px 308.21px; transform: rotate(-73.04deg);" class="animable"></rect></g><path d="M322.89,306.22a1.88,1.88,0,1,0,1.25,2.35A1.89,1.89,0,0,0,322.89,306.22Z" style="fill: rgb(255, 188, 0); transform-origin: 322.341px 308.019px;" id="eldmc5xnto5ro" class="animable"></path></g><g id="freepik--health-information--inject-20" class="animable" style="transform-origin: 371.045px 245px;"><g id="elkiqjaw3ya2"><rect x="361.83" y="209.34" width="71.32" height="71.32" style="fill: rgb(255, 188, 0); transform-origin: 397.49px 245px; transform: rotate(180deg);" class="animable"></rect></g><rect x="356.89" y="209.34" width="4.94" height="71.32" style="fill: rgb(255, 188, 0); transform-origin: 359.36px 245px;" id="elmrqa41s90ok" class="animable"></rect><g id="eltyfa7o37dp"><rect x="356.89" y="209.34" width="4.94" height="71.32" style="opacity: 0.1; transform-origin: 359.36px 245px;" class="animable"></rect></g><path d="M417.12,250a61.16,61.16,0,0,1-19.64,17.05A61.18,61.18,0,0,1,377.85,250c-6.92-9.15-6.58-23.47,3.31-26.57,10.94-3.43,16.32,13,16.32,13s5.46-16.57,16.33-13C423.66,226.64,424,240.86,417.12,250Z" style="fill: rgb(255, 255, 255); transform-origin: 397.47px 244.988px;" id="elvn4rmz88xb" class="animable"></path><polygon points="389.76 259.83 386.78 247.41 384.84 251.79 372.79 251.79 372.79 250.39 383.93 250.39 387.18 243.07 389.51 252.75 392.79 232.69 395.69 248.56 397.99 241.93 401.61 252.78 402.41 250.38 422.19 250.38 422.19 251.78 403.42 251.78 401.6 257.2 397.96 246.28 395.27 254.05 392.87 240.89 389.76 259.83" style="fill: rgb(255, 188, 0); transform-origin: 397.49px 246.26px;" id="elrksmcp9wma" class="animable"></polygon><rect x="354.48" y="244.5" width="1.5" height="1" style="fill: rgb(255, 188, 0); transform-origin: 355.23px 245px;" id="el9vhi8nq0l1j" class="animable"></rect><path d="M351.66,245.5h-2.81v-1h2.81Zm-5.63,0h-2.82v-1H346Zm-5.63,0h-2.82v-1h2.82Zm-5.64,0h-2.82v-1h2.82Zm-5.63,0h-2.82v-1h2.82Zm-5.64,0h-2.81v-1h2.81Zm-5.63,0H315v-1h2.82Z" style="fill: rgb(255, 188, 0); transform-origin: 333.33px 245px;" id="elai8xgcgt2a" class="animable"></path><rect x="310.73" y="244.5" width="1.5" height="1" style="fill: rgb(255, 188, 0); transform-origin: 311.48px 245px;" id="elv8n25f89goa" class="animable"></rect><circle cx="310.82" cy="245" r="1.88" style="fill: rgb(255, 188, 0); transform-origin: 310.82px 245px;" id="elz90kixiczuj" class="animable"></circle></g><g id="freepik--Email--inject-20" class="animable" style="transform-origin: 357.16px 132.01px;"><g id="elwlqlj047o5o"><rect x="332.9" y="76.09" width="71.32" height="71.32" style="fill: rgb(255, 188, 0); transform-origin: 368.56px 111.75px; transform: rotate(180deg);" class="animable"></rect></g><rect x="327.95" y="76.09" width="4.94" height="71.32" style="fill: rgb(255, 188, 0); transform-origin: 330.42px 111.75px;" id="elcpftcb43z0j" class="animable"></rect><g id="elty845dyq0l"><rect x="327.95" y="76.09" width="4.94" height="71.32" style="opacity: 0.1; transform-origin: 330.42px 111.75px;" class="animable"></rect></g><g id="freepik--TEfYE6--inject-20" class="animable" style="transform-origin: 368.553px 111.759px;"><path d="M388.56,96.77l-1.07,1-16.94,16.13a2.54,2.54,0,0,1-3.89,0L349.28,97.52l-.68-.67a2.64,2.64,0,0,1,1.51-.4l11.76,0,24.54-.1A3.57,3.57,0,0,1,388.56,96.77Z" style="fill: rgb(255, 255, 255); transform-origin: 368.58px 105.566px;" id="elu9m2e2wpys" class="animable"></path><path d="M388.51,126.77a8.18,8.18,0,0,1-1.45.26c-4.69,0-9.38,0-14.07.07l-22.61.09a3.35,3.35,0,0,1-1.83-.46l14-13.37,2.71,2.55,1.15,1.08a3,3,0,0,0,4.32,0c1.24-1.17,2.47-2.36,3.76-3.6l14,13.21Z" style="fill: rgb(255, 255, 255); transform-origin: 368.53px 120.276px;" id="elnl6zf5o0vp" class="animable"></path><path d="M360.87,111.74c-4.55,4.43-9.17,8.73-13.67,13.18a3.42,3.42,0,0,1-.1-.66q-.06-12.39-.1-24.78a5.59,5.59,0,0,1,.09-.78Z" style="fill: rgb(255, 255, 255); transform-origin: 353.935px 111.81px;" id="elf6pxhxvhpoo" class="animable"></path><path d="M390,124.78q-2.55-2.44-5.13-4.88l-8.32-7.85-.33-.26c4.58-4.46,9.21-8.77,13.68-13.19C390.09,99.08,390.2,124.12,390,124.78Z" style="fill: rgb(255, 255, 255); transform-origin: 383.163px 111.69px;" id="el5bwulihvhmx" class="animable"></path></g><rect x="366.74" y="151.69" width="1" height="1.5" style="fill: rgb(255, 188, 0); transform-origin: 367.24px 152.44px;" id="eldin1upv1an7" class="animable"></rect><path d="M367.74,164.81h-1v-2.9h1Zm0-5.81h-1v-2.91h1Z" style="fill: rgb(255, 188, 0); transform-origin: 367.24px 160.45px;" id="elrdhilv2u19o" class="animable"></path><polygon points="365.95 170.13 365.66 169.17 366.74 168.84 366.74 167.72 367.74 167.72 367.74 169.59 365.95 170.13" style="fill: rgb(255, 188, 0); transform-origin: 366.7px 168.925px;" id="ellt9pp3ag2rm" class="animable"></polygon><path d="M316.23,185.27l-.29-1,2.76-.84.3,1Zm5.53-1.68-.29-1,2.76-.85.29,1Zm5.52-1.68-.29-1,2.76-.84.29,1Zm5.53-1.68-.3-1,2.77-.84.29,1Zm5.52-1.69-.29-.95,2.76-.84.29.95Zm5.52-1.68-.29-1,2.77-.84.29,1Zm5.53-1.68-.29-1,2.76-.84.29,1Zm5.52-1.68-.29-1,2.76-.84.29,1Zm5.53-1.69-.29-.95,2.76-.84.29.95Z" style="fill: rgb(255, 188, 0); transform-origin: 339.565px 177.645px;" id="elnbi0i8ko0f" class="animable"></path><g id="el4cak9vgw5u6"><rect x="311.86" y="185.36" width="1.5" height="1" style="fill: rgb(255, 188, 0); transform-origin: 312.61px 185.86px; transform: rotate(-16.91deg);" class="animable"></rect></g><circle cx="311.98" cy="186.05" r="1.88" style="fill: rgb(255, 188, 0); transform-origin: 311.98px 186.05px;" id="elq1bxo9syujo" class="animable"></circle></g><g id="freepik--Localisation--inject-20" class="animable" style="transform-origin: 136.769px 358.235px;"><rect x="90.37" y="342.59" width="71.32" height="71.32" style="fill: rgb(255, 188, 0); transform-origin: 126.03px 378.25px;" id="elo78dbe0fmz" class="animable"></rect><g id="elemfb1zyjqlb"><rect x="161.68" y="342.59" width="4.94" height="71.32" style="fill: rgb(255, 188, 0); transform-origin: 164.15px 378.25px; transform: rotate(180deg);" class="animable"></rect></g><g id="el0ib0exe8zh9o"><rect x="161.68" y="342.59" width="4.94" height="71.32" style="opacity: 0.1; transform-origin: 164.15px 378.25px; transform: rotate(180deg);" class="animable"></rect></g><g id="freepik--uGJA8C--inject-20" class="animable" style="transform-origin: 126.021px 378.252px;"><path d="M142.33,365.27c-3.48-7.68-12.36-11.72-20.9-9.59-7.25,1.8-13.9,8.46-13.07,17.89a23.52,23.52,0,0,0,2.37,7.8,60.06,60.06,0,0,0,10.13,14.68c1.62,1.82,3.34,3.55,5,5.34.25-.22.42-.34.55-.48,2.19-2.35,4.45-4.62,6.54-7.06a51.1,51.1,0,0,0,9.37-15C144.08,374.29,144.37,369.77,142.33,365.27ZM137,371.84a11,11,0,1,1-10.36-11.16A11,11,0,0,1,137,371.84Z" style="fill: rgb(255, 255, 255); transform-origin: 126.021px 378.252px;" id="elv3s761invgq" class="animable"></path></g><rect x="125.53" y="337.3" width="1" height="1.5" style="fill: rgb(255, 188, 0); transform-origin: 126.03px 338.05px;" id="elfsw78xd932s" class="animable"></rect><path d="M126.53,334.4h-1v-2.91h1Zm0-5.81h-1v-2.91h1Z" style="fill: rgb(255, 188, 0); transform-origin: 126.03px 330.04px;" id="el88lvktikorc" class="animable"></path><polygon points="126.53 322.78 125.53 322.78 125.53 320.91 127.31 320.36 127.61 321.32 126.53 321.65 126.53 322.78" style="fill: rgb(255, 188, 0); transform-origin: 126.57px 321.57px;" id="elh0lhzk1m3c9" class="animable"></polygon><path d="M130.37,320.48l-.29-1,2.76-.84.29,1Zm5.52-1.69-.29-1,2.76-.84.29.95Zm5.53-1.68-.3-1,2.77-.84.29,1Zm5.52-1.68-.29-1,2.76-.84.29,1Zm5.52-1.68-.29-1,2.77-.84.29,1Zm5.53-1.69-.29-.95,2.76-.84.29,1Zm5.52-1.68-.29-1,2.76-.84.29,1ZM169,308.7l-.29-1,2.76-.84.29,1Zm5.52-1.68-.29-1,2.76-.84.29.95Z" style="fill: rgb(255, 188, 0); transform-origin: 153.68px 312.83px;" id="elf55mer8ftyn" class="animable"></path><g id="elyuwqc783fpg"><rect x="179.91" y="304.14" width="1.5" height="1" style="fill: rgb(255, 188, 0); transform-origin: 180.66px 304.64px; transform: rotate(-16.91deg);" class="animable"></rect></g><path d="M181.83,306.24a1.88,1.88,0,1,0-2.34-1.25A1.86,1.86,0,0,0,181.83,306.24Z" style="fill: rgb(255, 188, 0); transform-origin: 181.288px 304.442px;" id="eld946nepfepd" class="animable"></path></g><g id="freepik--phone-number--inject-20" class="animable" style="transform-origin: 109.755px 245px;"><rect x="61.43" y="209.34" width="71.32" height="71.32" style="fill: rgb(255, 188, 0); transform-origin: 97.09px 245px;" id="elzl0lm8pq68r" class="animable"></rect><g id="el0zpnpi2d6rnj"><rect x="132.74" y="209.34" width="4.94" height="71.32" style="fill: rgb(255, 188, 0); transform-origin: 135.21px 245px; transform: rotate(180deg);" class="animable"></rect></g><g id="elw4s2gnz9y3"><rect x="132.74" y="209.34" width="4.94" height="71.32" style="opacity: 0.1; transform-origin: 135.21px 245px; transform: rotate(180deg);" class="animable"></rect></g><g id="freepik--IaQ7Yo--inject-20" class="animable" style="transform-origin: 97.101px 245px;"><path d="M112.66,265.36a5.73,5.73,0,0,1-2.77,1.38c-.46.11-.92.18-1.38.27H106.1c-.8-.13-1.6-.23-2.4-.4a24.52,24.52,0,0,1-8.76-3.86A56.71,56.71,0,0,1,79.29,247a24.06,24.06,0,0,1-3.8-8.65c-.17-.82-.28-1.65-.41-2.48v-2.32a18.26,18.26,0,0,1,.53-2.24,15.54,15.54,0,0,1,1-2c.19.17.29.24.38.32q4.95,5,9.91,9.9a.56.56,0,0,1,.16.64A4.84,4.84,0,0,0,88.13,245a97,97,0,0,0,9,9,4.85,4.85,0,0,0,4.8,1,.49.49,0,0,1,.57.1l10,10.07Z" style="fill: rgb(255, 255, 255); transform-origin: 93.87px 248.16px;" id="elt9j1ygypzhm" class="animable"></path><path d="M118.46,259.58q-1.74,1.76-3.49,3.49l-.25.23-10.15-10.14c.23-.22.51-.46.77-.71,1-1,2-2,3-3a1.61,1.61,0,0,1,2.58,0q3.8,3.78,7.57,7.57A1.59,1.59,0,0,1,118.46,259.58Z" style="fill: rgb(255, 255, 255); transform-origin: 111.846px 256.052px;" id="elmbsagvvw1fd" class="animable"></path><path d="M92.7,233.66c-1.29,1.26-2.61,2.49-3.91,3.72l-10-10a1.92,1.92,0,0,1,.2-.23q1.77-1.78,3.55-3.56a1.58,1.58,0,0,1,2.48,0c2.55,2.55,5.11,5.1,7.65,7.65A1.56,1.56,0,0,1,92.7,233.66Z" style="fill: rgb(255, 255, 255); transform-origin: 86.0253px 230.185px;" id="el43xnmkw3x8q" class="animable"></path></g><rect x="138.83" y="244.5" width="1.5" height="1" style="fill: rgb(255, 188, 0); transform-origin: 139.58px 245px;" id="el9jnkddimmgu" class="animable"></rect><path d="M151.9,245.5H149v-1h2.89Zm-5.78,0h-2.9v-1h2.9Z" style="fill: rgb(255, 188, 0); transform-origin: 147.56px 245px;" id="el7rba2f83bvm" class="animable"></path><rect x="154.8" y="244.5" width="1.5" height="1" style="fill: rgb(255, 188, 0); transform-origin: 155.55px 245px;" id="elzwisxj9e2l" class="animable"></rect><path d="M156.2,246.88a1.88,1.88,0,1,0-1.88-1.88A1.88,1.88,0,0,0,156.2,246.88Z" style="fill: rgb(255, 188, 0); transform-origin: 156.2px 245px;" id="elvnx28e2zd7" class="animable"></path></g><g id="freepik--online-identifier--inject-20" class="animable" style="transform-origin: 136.769px 132.011px;"><rect x="90.37" y="76.09" width="71.32" height="71.32" style="fill: rgb(255, 188, 0); transform-origin: 126.03px 111.75px;" id="elmyif34gsv2g" class="animable"></rect><g id="elg6cctx6204b"><rect x="161.68" y="76.09" width="4.94" height="71.32" style="fill: rgb(255, 188, 0); transform-origin: 164.15px 111.75px; transform: rotate(180deg);" class="animable"></rect></g><g id="el22tz3ulz2r9"><rect x="161.68" y="76.09" width="4.94" height="71.32" style="opacity: 0.1; transform-origin: 164.15px 111.75px; transform: rotate(180deg);" class="animable"></rect></g><path d="M138.33,102a11.92,11.92,0,1,1-11.78-12.06A11.92,11.92,0,0,1,138.33,102Z" style="fill: rgb(255, 255, 255); transform-origin: 126.411px 101.859px;" id="el7jgvcfb63do" class="animable"></path><path d="M146.58,133.59H105.47a20.58,20.58,0,0,1,41.11,0Z" style="fill: rgb(255, 255, 255); transform-origin: 126.025px 123.807px;" id="el9yibpu3sivv" class="animable"></path><rect x="125.53" y="151.69" width="1" height="1.5" style="fill: rgb(255, 188, 0); transform-origin: 126.03px 152.44px;" id="eltvwuucg5deq" class="animable"></rect><path d="M126.53,164.81h-1v-2.9h1Zm0-5.81h-1v-2.91h1Z" style="fill: rgb(255, 188, 0); transform-origin: 126.03px 160.45px;" id="eltu1cmdwta1s" class="animable"></path><polygon points="127.31 170.13 125.53 169.59 125.53 167.72 126.53 167.72 126.53 168.84 127.61 169.17 127.31 170.13" style="fill: rgb(255, 188, 0); transform-origin: 126.57px 168.925px;" id="elealjy5qcap" class="animable"></polygon><path d="M177,185.27l-2.76-.84.29-1,2.76.84Zm-5.52-1.68-2.76-.84.29-1,2.76.85ZM166,181.91l-2.76-.84.29-1,2.76.84Zm-5.52-1.68-2.76-.84.29-1,2.76.84Zm-5.52-1.69-2.77-.84.29-.95,2.77.84Zm-5.53-1.68-2.76-.84.29-1,2.76.84Zm-5.52-1.68-2.77-.84.3-1,2.76.84Zm-5.53-1.68-2.76-.84.29-1,2.76.84Zm-5.52-1.69-2.76-.84.29-.95,2.76.84Z" style="fill: rgb(255, 188, 0); transform-origin: 153.695px 177.645px;" id="eli0llyfswce" class="animable"></path><g id="eli0j63k7t8s"><rect x="180.16" y="185.11" width="1" height="1.5" style="fill: rgb(255, 188, 0); transform-origin: 180.66px 185.86px; transform: rotate(-73.06deg);" class="animable"></rect></g><path d="M180.74,187.85a1.88,1.88,0,1,0-1.25-2.35A1.88,1.88,0,0,0,180.74,187.85Z" style="fill: rgb(255, 188, 0); transform-origin: 181.287px 186.051px;" id="elrblhee03wxd" class="animable"></path></g><g id="freepik--Character--inject-20" class="animable" style="transform-origin: 251.052px 258.248px;"><rect x="200.59" y="401.41" width="60.78" height="4.46" style="fill: rgb(199, 199, 199); transform-origin: 230.98px 403.64px;" id="elfx9kzv4yjph" class="animable"></rect><polygon points="205.66 254.04 205.34 278.26 203.29 392.2 203.22 397.32 202.32 464.73 198.88 464.73 197.97 397.32 197.91 392.2 195.85 278.26 195.53 254.04 205.66 254.04" style="fill: rgb(199, 199, 199); transform-origin: 200.595px 359.385px;" id="elpmexat3pjm" class="animable"></polygon><polygon points="195.53 254.04 205.66 254.04 205.34 278.26 195.85 278.26 195.53 254.04" style="fill: rgb(166, 166, 166); transform-origin: 200.595px 266.15px;" id="elmwj39k9nacr" class="animable"></polygon><polygon points="266.44 254.04 266.11 278.26 263.09 464.73 259.65 464.73 258.75 397.32 258.68 392.2 256.62 278.26 256.3 254.04 266.44 254.04" style="fill: rgb(199, 199, 199); transform-origin: 261.37px 359.385px;" id="el69sxtanq1ui" class="animable"></polygon><polygon points="266.44 254.04 266.11 278.26 256.62 278.26 256.3 254.04 266.44 254.04" style="fill: rgb(166, 166, 166); transform-origin: 261.37px 266.15px;" id="elwa9ow6gzawk" class="animable"></polygon><rect x="170.24" y="401.41" width="59.66" height="4.46" style="fill: rgb(199, 199, 199); transform-origin: 200.07px 403.64px;" id="elcf40a34886" class="animable"></rect><polygon points="175.31 254.04 174.98 278.26 172.93 392.2 172.86 397.32 171.96 464.73 168.52 464.73 165.5 278.26 165.17 254.04 175.31 254.04" style="fill: rgb(199, 199, 199); transform-origin: 170.24px 359.385px;" id="elmhcthidr3ph" class="animable"></polygon><polygon points="165.17 254.04 175.31 254.04 174.98 278.26 165.5 278.26 165.17 254.04" style="fill: rgb(166, 166, 166); transform-origin: 170.24px 266.15px;" id="el5uloilljykm" class="animable"></polygon><polygon points="234.97 254.04 234.65 278.26 232.59 392.2 232.53 397.32 231.62 464.73 228.19 464.73 227.28 397.32 227.22 392.2 225.16 278.26 224.84 254.04 234.97 254.04" style="fill: rgb(199, 199, 199); transform-origin: 229.905px 359.385px;" id="elmdyxbsucmbd" class="animable"></polygon><polygon points="224.84 254.04 234.97 254.04 234.65 278.26 225.16 278.26 224.84 254.04" style="fill: rgb(166, 166, 166); transform-origin: 229.905px 266.15px;" id="el9vd7c6vslwd" class="animable"></polygon><rect x="161.14" y="229.79" width="110.56" height="26.24" style="fill: rgb(255, 188, 0); transform-origin: 216.42px 242.91px;" id="elgbayuam4vda" class="animable"></rect><rect x="161.14" y="229.79" width="110.56" height="26.24" style="fill: rgb(55, 71, 79); transform-origin: 216.42px 242.91px;" id="el6vuq9u5nngy" class="animable"></rect><rect x="161.14" y="229.79" width="87.47" height="26.24" style="fill: rgb(69, 90, 100); transform-origin: 204.875px 242.91px;" id="elgk260tj2dnn" class="animable"></rect><path d="M239.31,331.85l-39.67,32.06c-7.62,6.09-14.18,11.56-17.31,14.71a.08.08,0,0,0-.05.05c-1.19,1.18-1.87,2-1.91,2.44,0,0,0,.06,0,.08.28,3.5,47.15,65.76,49.51,67.38s7.18-5,7.28-8.86S230,404,230,404l39.32-32.4Z" style="fill: rgb(211, 118, 106); transform-origin: 224.845px 390.335px;" id="elo0au2smkid" class="animable"></path><path d="M233.64,420.6c1.8,8.38,3.56,17.18,3.52,19.11-.11,3.86-4.92,10.5-7.28,8.86s-49.24-63.88-49.51-67.37c0,0,0-.05,0-.09,0-.41.72-1.26,1.91-2.44,0,0,0,0,0-.05,2.54-2.56,7.36-6.64,13.15-11.35,1.34-1.1,2.74-2.21,4.17-3.37,0,0,39.67-32.06,39.67-32.06l30,39.72L230,404s1.85,8.09,3.67,16.62Z" style="fill: rgb(211, 118, 106); transform-origin: 224.82px 390.333px;" id="elh6jbsbekdca" class="animable"></path><path d="M237.16,439.71c-.11,3.86-4.92,10.5-7.28,8.86s-49.24-63.88-49.51-67.37c0,0,0-.05,0-.09,0-.41.72-1.26,1.91-2.44,0,0,0,0,0-.05,2.54-2.56,7.36-6.64,13.15-11.35,8.6,17.39,32.19,64.12,36.95,63.8,1.69-.12,1.64-5.46,1.22-10.47C235.44,429,237.2,437.78,237.16,439.71Z" style="fill: rgb(38, 50, 56); transform-origin: 208.765px 408.048px;" id="elan2zuzayg7v" class="animable"></path><path d="M260.75,293.67c-2.81,13.87-60.36,69.22-60.36,69.22l40.12,46.31S322.22,327.64,318,297c-3.7-26.65-43.61-133.85-43.61-133.85h-46S263.51,280,260.75,293.67Z" style="fill: rgb(55, 71, 79); transform-origin: 259.274px 286.175px;" id="elb7kvmj6ib1b" class="animable"></path><path d="M260.75,293.67c-2.81,13.87-60.36,69.22-60.36,69.22l40.12,46.31S322.22,327.64,318,297c-3.7-26.65-43.61-133.85-43.61-133.85h-46S263.51,280,260.75,293.67Z" style="fill: rgb(38, 50, 56); transform-origin: 259.274px 286.175px;" id="el2fuxftb2llx" class="animable"></path><path d="M245.08,398.19c-5.33-6.64-3.71-4.81-9.11-11.39-2.65-3.21-20.05-24.34-23-26.91a.09.09,0,0,0-.14.11c2,3.4,19.78,24.22,22.48,27.39,5.53,6.47,4,4.55,9.62,11C245,398.47,245.18,398.31,245.08,398.19Z" style="fill: rgb(55, 71, 79); transform-origin: 228.964px 379.138px;" id="el26bdu5vhen6" class="animable"></path><path d="M266.47,286.91c-.66-3.46-1.41-6.91-2.14-10.36q-2.25-10.56-4.76-21.07-5-20.83-10.81-41.43c-3.93-13.78-8.08-27.54-12.85-41.05-.59-1.66-1.2-3.33-1.81-5a.1.1,0,0,0-.2.06c4.13,13.53,8.4,27,12.28,40.64s7.44,27.19,10.81,40.87c1.69,6.87,3.27,13.77,4.81,20.68q1.13,5.08,2.21,10.19A71.15,71.15,0,0,1,265.94,291a16,16,0,0,1-2.7,9.46c-1.73,2.83-3.76,5.48-5.72,8.15-3.94,5.33-41.41,47.09-42.62,48.23-.09.09,0,.22.15.13,5-4.51,36.82-38.93,40.86-44.26,2-2.63,3.94-5.3,5.86-8a32,32,0,0,0,4.57-8.06C267.4,293.43,267.08,290.14,266.47,286.91Z" style="fill: rgb(55, 71, 79); transform-origin: 240.949px 262.463px;" id="el99fwy6pksol" class="animable"></path><path d="M266.37,163.13,258,272.84c-8-37.55-29.71-109.71-29.71-109.71Z" style="fill: rgb(55, 71, 79); transform-origin: 247.33px 217.985px;" id="el8vpfb6kzl1j" class="animable"></path><path d="M250.56,389s9.94,48.39,9.94,48.43c.13,9.75.42,18.29,1,22.69,0,0,0,.05,0,.08.21,1.66.45,2.72.76,3l.05.06c2.93,1.92,80.85,3.13,83.59,2.26s.46-8.73-2.53-11.19-32.63-16.26-32.63-16.26l-10.42-48.37Z" style="fill: rgb(211, 118, 106); transform-origin: 298.845px 427.403px;" id="el1ho88t4i8at" class="animable"></path><path d="M345.9,465.52c-2.73.88-80.66-.32-83.58-2.25,0,0,0,0-.07-.07-.3-.27-.55-1.33-.76-3,0,0,0,0,0-.06-.43-3.52-.72-9.66-.88-16.95,19.8,3.86,69.5,13.05,72.08,9.13,1-1.51-3.89-5-8.37-7.8,8.24,4,17.46,8.51,19.06,9.82C346.36,456.8,348.64,464.67,345.9,465.52Z" style="fill: rgb(38, 50, 56); transform-origin: 303.87px 454.502px;" id="el3fs4hp3k43i" class="animable"></path><path d="M273.83,163.14a188.63,188.63,0,0,0-3.95,23c-1,9.64-2.17,18.16-3.45,19.22-1.46,1.2-8.73,5.87-11.18,7.37,0,0,22.68,68.77,28.54,91.7,8.48,33.23,28.81,132.94,28.81,132.94H258.44S242,342.41,234.77,310.77c-6.17-27.13-28.69-103.52-28.69-103.52-8.6-21.16,5.3-44.11,5.3-44.11S273.84,163.1,273.83,163.14Z" style="fill: rgb(38, 50, 56); transform-origin: 257.936px 300.246px;" id="elzq31iohbzc" class="animable"></path><path d="M310.65,426.8c-8.52-.05-6.07-.15-14.59-.1-4.16,0-31.53.21-35.41.91-.09,0-.09.16,0,.17,3.9.59,31.26-.07,35.43-.18,8.51-.21,6.06-.24,14.57-.55A.13.13,0,0,0,310.65,426.8Z" style="fill: rgb(55, 71, 79); transform-origin: 285.663px 427.354px;" id="eljnrv93yir6p" class="animable"></path><path d="M270.26,202.62a103,103,0,0,0-14.94,10c-.18.14,0,.44.2.31,5.07-3.17,10.25-6.26,15.14-9.71A.36.36,0,0,0,270.26,202.62Z" style="fill: rgb(55, 71, 79); transform-origin: 263.033px 207.761px;" id="el89ap17npgz4" class="animable"></path><path d="M266.15,166.07c0-.18-.38-.17-.34,0a169.69,169.69,0,0,1,1.88,17.4c.18,2.83.33,18.63-4.69,18.25-.84-.06-1.38-.8-1.7-2a19.56,19.56,0,0,1-.09-4.84c0-3.31,0-6.62-.27-9.93a90,90,0,0,0-3-18.24.16.16,0,0,0-.31.06A169.85,169.85,0,0,1,260,192.26c0,4.11-1.07,10.47,3.23,10.43s5.57-10.59,5.66-13.44A86.81,86.81,0,0,0,266.15,166.07Z" style="fill: rgb(55, 71, 79); transform-origin: 263.266px 184.314px;" id="el7fq01qe9ql" class="animable"></path><path d="M263.19,202.15a25.54,25.54,0,0,0-.59,3.37,7.22,7.22,0,0,0-.05,2.7.19.19,0,0,0,.35,0,9.4,9.4,0,0,0,.73-2.74c.21-1,.45-2.09.63-3.14A.55.55,0,0,0,263.19,202.15Z" style="fill: rgb(55, 71, 79); transform-origin: 263.353px 205.057px;" id="eldrtgj5h42h" class="animable"></path><path d="M252.14,397c-.14-1.26-.31-2.51-.49-3.76-.34-2.4-.74-4.79-1.11-7.18-.74-4.82-1.57-9.62-2.42-14.41-1.7-9.57-3.66-19.1-5.73-28.59-1.17-5.37-2.53-10.67-4-16-.1-.37-.62-.19-.56.17.87,4.85,1.71,9.7,2.7,14.53s2,9.63,2.94,14.45c1.89,9.53,3.65,19.08,5.54,28.61.53,2.69,1,5.39,1.54,8.08.26,1.35.53,2.69.82,4s.7,2.64.92,4c0,.13.21.07.19,0C252.31,399.56,252.29,398.25,252.14,397Z" style="fill: rgb(55, 71, 79); transform-origin: 245.153px 363.916px;" id="eli8k051djo5k" class="animable"></path><path d="M289.49,325c-1.81-9-4.24-17.85-6.68-26.68-4.92-17.78-10.72-35.29-16.5-52.8q-2.49-7.56-5-15.13c-.83-2.52-4.91-16.12-5.42-17.42a.11.11,0,0,0-.21.07c1.17,4.63,2.78,11.39,4.13,16s2.79,9,4.2,13.55c2.77,8.86,5.58,17.71,8.27,26.61,5.31,17.57,10.58,35.14,14.89,53,1.21,5,2.41,10,3.51,15s2,10.07,3.09,15.09c0,.14.26.1.25,0C293.11,343.06,291.3,334,289.49,325Z" style="fill: rgb(55, 71, 79); transform-origin: 274.848px 282.638px;" id="elp5y5xnz3o9g" class="animable"></path><path d="M256,373.24c-2.89-16.73-6.36-33.37-10.2-49.91s-8.15-33.14-12.89-49.53-10-32.63-15.61-48.72c-2.67-7.63-5.39-15.28-7.14-23.18s-3.25-20.55,4.9-36.83c.07-.13-.38-.2-.45-.07-10.72,18.47-5.87,37.77-1.06,52.38,2.64,8,5.45,15.94,8,24q4,12.33,7.68,24.78c4.85,16.44,9.35,33,13.39,49.64s7.63,33.42,10.79,50.27,5.84,33.89,8.55,50.88c.35,2.21.63,4.43.91,6.65,0,.12.21.12.2,0C261.12,406.72,258.92,390,256,373.24Z" style="fill: rgb(55, 71, 79); transform-origin: 235.622px 294.31px;" id="el4tmosdqruxo" class="animable"></path><path d="M220.57,187.74c1.09-.42,2.3-.51,3.43-.83a26.94,26.94,0,0,0,3.48-1.19,26.59,26.59,0,0,0,6-3.54,13.92,13.92,0,0,0,3.94-5.62c.5-1.16,2.67-7.29,2.69-7.33s.36-.09.35.06c-.06.82-1.3,6.06-1.72,7.38a13.57,13.57,0,0,1-4,6.47,21.18,21.18,0,0,1-6.71,3.77,22.26,22.26,0,0,1-3.85,1,10.43,10.43,0,0,1-3.69.19C220.35,188.06,220.41,187.79,220.57,187.74Z" style="fill: rgb(55, 71, 79); transform-origin: 230.436px 178.686px;" id="elou9a0g9sj5h" class="animable"></path><path d="M281.41,183.73a12.9,12.9,0,0,0-1.84-.63,11.76,11.76,0,0,1-1.9-1,15.38,15.38,0,0,1-3.4-3,15.81,15.81,0,0,1-2.48-5c-.35-1-1.29-6.69-1.3-6.73s-.19-.07-.17.07a46.48,46.48,0,0,0,.8,6.81,17,17,0,0,0,2.55,5.81,11.79,11.79,0,0,0,3.78,3.22,7.82,7.82,0,0,0,2.07.78,3,3,0,0,0,1.93,0C281.55,184,281.5,183.77,281.41,183.73Z" style="fill: rgb(55, 71, 79); transform-origin: 275.912px 175.778px;" id="elnbfofklxis" class="animable"></path><path d="M264.47,89.91c1.83,4.66,4.43,8.89,5.88,13.72a31.44,31.44,0,0,1,1.22,13.76c-2.59,16.9-24.6,27-40.06,21.79-7.39-2.51-13.82-8.51-15.79-16.2-2.4-9.43,2.63-18.49,5.69-27.1a44.15,44.15,0,0,0,2.48-15c0-4.48-.27-9,.63-13.45.65-3.14,2.8-12.3,14.41-16,8.33-2.63,16.76,1.92,20.64,9.84C264.09,70.49,260.86,80.66,264.47,89.91Z" style="fill: rgb(38, 50, 56); transform-origin: 243.47px 95.6186px;" id="elv5xk4ljlwga" class="animable"></path><path d="M224.78,91.28c-3.6,7.71-8.33,15.59-9.71,24.1-1.15,7.05.75,14.68,6.89,18.88,0,0,.11,0,.06-.08-6.45-5-7.25-13.63-5.44-21.06,1.85-7.61,6.31-14.23,8.56-21.68A.2.2,0,0,0,224.78,91.28Z" style="fill: rgb(38, 50, 56); transform-origin: 219.949px 112.726px;" id="el3tak7lw5xyn" class="animable"></path><path d="M223.15,90.84c-2.72,10.11-11.05,18.07-11.58,28.83,0,.13.19.16.2,0,.7-10.74,10-18.37,11.58-28.83A.1.1,0,1,0,223.15,90.84Z" style="fill: rgb(38, 50, 56); transform-origin: 217.46px 105.26px;" id="elr0hbee1mo1n" class="animable"></path><path d="M265.05,89.74a35.05,35.05,0,0,1-3.16-11.89c0-.21-.37-.23-.38,0-1,14.84,16,26,11.5,41.32,0,.11.13.18.17.07,2.17-6.33.48-12.67-2.36-18.51C269,97,266.81,93.49,265.05,89.74Z" style="fill: rgb(38, 50, 56); transform-origin: 267.817px 98.4901px;" id="elua04jsoslv" class="animable"></path><path d="M261.61,75.65c0-.29-.45-.2-.43.07a33.19,33.19,0,0,0,5.22,15.6c1.48,2.32,3.29,4.39,4.72,6.73,1.57,2.57,2.78,5.32,4.09,8a.06.06,0,0,0,.11,0c-1.71-5.11-4.39-9.18-7.46-13.53A36.57,36.57,0,0,1,261.61,75.65Z" style="fill: rgb(38, 50, 56); transform-origin: 268.25px 90.7784px;" id="elgjs3g23mx6k" class="animable"></path><path d="M247.26,117c16.51,21.06,36.51,43.39,50.92,44.45,13.72,1,38.88-37.31,42.18-49.1,1.13-4.07-29-15.27-32-11.89-5.63,6.39-14.5,24.81-16.63,24.77s-22.45-12.39-40.6-22.58C240.1,96.45,235.83,102.4,247.26,117Z" style="fill: rgb(211, 118, 106); transform-origin: 290.447px 130.651px;" id="eluy3kux83lnp" class="animable"></path><path d="M333.88,119.22s9.11-9,14.79-15.23c3.17-3.45,8.08-9.85,9.25-13.46,1.74-5.38,5.61-29-.1-30.1-5.18-1-5.92,19.78-5.92,19.78s2.6-20.86-3.84-20.87-4.16,23.53-4.16,23.53,2.19-21.49-4.46-20.45c-5,.78-4.15,22.23-4.15,22.23s1.75-18.49-3.45-17.91c-5.74.65-6.19,20.49-6.19,20.49A30.84,30.84,0,0,0,305,106.45C304.45,107.82,333.88,119.22,333.88,119.22Z" style="fill: rgb(211, 118, 106); transform-origin: 332.908px 89.28px;" id="elodc1nvhju1" class="animable"></path><path d="M351.56,86.5c3.09-15.22-.06-23.63,0-23.39.91,5.68.42,14.51.24,17s-.13,3.94-.31,6.4C351.46,86.56,351.55,86.55,351.56,86.5Z" style="fill: rgb(38, 50, 56); transform-origin: 352.202px 74.8239px;" id="elfina3y85r78" class="animable"></path><path d="M342.55,87a52.74,52.74,0,0,0,1.26-18.67c0-.24-.13-.16-.14.08-.14,3.14-.91,15.47-1.19,18.59C342.47,87.06,342.54,87.06,342.55,87Z" style="fill: rgb(38, 50, 56); transform-origin: 343.307px 77.615px;" id="elv4dbp6b3qoc" class="animable"></path><path d="M334.82,88a38.94,38.94,0,0,0,.55-14.48c0-.24-.16-.12-.17.13-.09,4.81-.13,8.6-.54,14.33C334.65,88.05,334.81,88.09,334.82,88Z" style="fill: rgb(38, 50, 56); transform-origin: 335.231px 80.7209px;" id="eljah6rqhvra" class="animable"></path><path d="M303.14,105.61l30.67,22.53S312.26,163.52,299,162.67s-43.71-30.9-55.44-51.37c-8.12-14.16.75-13.28,11-7.48s36.72,20,37.68,19.53S303.14,105.61,303.14,105.61Z" style="fill: rgb(255, 188, 0); transform-origin: 287.1px 131.275px;" id="elpd41j0b277i" class="animable"></path><g id="el5315y5rp7x6"><g style="opacity: 0.5; transform-origin: 287.1px 131.275px;" class="animable"><path d="M303.14,105.61l30.67,22.53S312.26,163.52,299,162.67s-43.71-30.9-55.44-51.37c-8.12-14.16.75-13.28,11-7.48s36.72,20,37.68,19.53S303.14,105.61,303.14,105.61Z" style="fill: rgb(255, 255, 255); transform-origin: 287.1px 131.275px;" id="el8vje2emi7fp" class="animable"></path></g></g><path d="M308.94,158.49c-3.52,2.7-7,4.37-10,4.18-13.32-.85-43.71-30.9-55.44-51.37-6.48-11.3-2.14-13,5.07-10.31C266.39,117.64,293.56,143.22,308.94,158.49Z" style="fill: rgb(255, 188, 0); transform-origin: 274.635px 131.279px;" id="elgp1wpf5slab" class="animable"></path><path d="M326.31,134.19c-4.4-3.07-22-16.31-25.59-19.42-.25-.22-.17-.43.12-.24,13.43,8.89,21.42,16.25,25.59,19.48C326.53,134.1,326.42,134.27,326.31,134.19Z" style="fill: rgb(38, 50, 56); transform-origin: 313.52px 124.333px;" id="elha8kw11rxar" class="animable"></path><path d="M205.63,165.07l69.69-1.59-7.45-20.61a21.59,21.59,0,0,0,1.45-18.18c-2.19-5.89-10.83-14.23-16.13-19.54-12.93-12.94-22.47-5.69-25.37-1.79C216.74,118.24,205.63,165.07,205.63,165.07Z" style="fill: rgb(255, 188, 0); transform-origin: 240.475px 131.427px;" id="elzdrwpexffjj" class="animable"></path><g id="ele6x5geu7s8t"><path d="M205.63,165.07l69.69-1.59-7.45-20.61a21.59,21.59,0,0,0,1.45-18.18c-2.19-5.89-10.83-14.23-16.13-19.54-12.93-12.94-22.47-5.69-25.37-1.79C216.74,118.24,205.63,165.07,205.63,165.07Z" style="fill: rgb(255, 255, 255); opacity: 0.5; transform-origin: 240.475px 131.427px;" class="animable"></path></g><path d="M247.74,142.42a59.24,59.24,0,0,1,8.83-.55c1.47,0,2.93.14,4.39.28.73.07,1.46.11,2.19.15a9.74,9.74,0,0,0,2.29-.08c.06,0,.08.08,0,.1a15.34,15.34,0,0,1-2.12.44,13.46,13.46,0,0,1-2.1.08c-1.49,0-3-.12-4.47-.16-3-.08-6-.16-9,0C247.62,142.67,247.6,142.43,247.74,142.42Z" style="fill: rgb(38, 50, 56); transform-origin: 256.568px 142.358px;" id="eldelemklq5tm" class="animable"></path><path d="M241.23,146.58a63.15,63.15,0,0,1,7-2c1.2-.26,2.4-.45,3.61-.6.57-.08,1.15-.14,1.73-.2s1.29,0,1.92-.11c.07,0,.09.1,0,.1-.59.09-1.18.28-1.77.4l-1.79.36c-1.19.24-2.38.49-3.57.72-2.39.46-4.77.95-7.14,1.49C241.14,146.8,241.11,146.62,241.23,146.58Z" style="fill: rgb(38, 50, 56); transform-origin: 248.35px 145.211px;" id="el1ynit610vym" class="animable"></path><path d="M224.58,109.74c-15.68,27.06-37.08,83-41.31,91.89-2.88,6,28.64,21.91,30,17.53,1.71-5.61,21.53-71.79,23-104.06C236.87,100.15,229.6,101.09,224.58,109.74Z" style="fill: rgb(211, 118, 106); transform-origin: 209.695px 161.702px;" id="el715g4w2vzch" class="animable"></path><path d="M214.1,216.13c-.73,5.47-4.45,16.48-7.21,18.15s-17.27,1.32-24.58,1.32-8.75-2-8.63-4.55,15.46-3,15.46-3-20.49,5.88-25.64,6.83-17,4-18.75-.32c-.77-1.92,2.48-3.87,2.48-3.87s-5,1.45-5.77-1c-.91-2.82,3-4.37,3-4.37s-3.11.62-3.18-1.67c-.16-5.14,19.33-7.66,19.33-7.66s-14.92,7.26-15.4,3.07c-.67-5.8,29.91-12.16,33.09-14.69a58.4,58.4,0,0,0,6.48-6.29Z" style="fill: rgb(211, 118, 106); transform-origin: 177.69px 217.447px;" id="elhimfpemcy68" class="animable"></path><path d="M173.79,232.32a2.25,2.25,0,0,1,.69-1.95,6.56,6.56,0,0,1,1.79-1.16,24.15,24.15,0,0,1,4.19-1.36c2.88-.73,5.83-1.25,8.77-2a35.76,35.76,0,0,0-9,1,16.89,16.89,0,0,0-4.31,1.65,5.85,5.85,0,0,0-1.79,1.54A2.34,2.34,0,0,0,173.79,232.32Z" style="fill: rgb(38, 50, 56); transform-origin: 181.432px 229.083px;" id="elq8kioz93b5" class="animable"></path><path d="M147.23,230.69c2.11-.52,4.19-1.11,6.26-1.71s4.14-1.24,6.2-1.86l6.17-1.93c2.06-.65,4.12-1.29,6.2-1.91a49.45,49.45,0,0,0-6.41,1.15c-2.11.48-4.19,1.08-6.26,1.71s-4.12,1.33-6.15,2.09S149.2,229.77,147.23,230.69Z" style="fill: rgb(38, 50, 56); transform-origin: 159.645px 226.985px;" id="eldsjkkw10leh" class="animable"></path><path d="M167.11,218.17a40.57,40.57,0,0,0-5.91.81,55.24,55.24,0,0,0-5.79,1.49,53.71,53.71,0,0,0-5.59,2.09,42.29,42.29,0,0,0-5.31,2.74c1.89-.65,3.72-1.38,5.6-2s3.73-1.27,5.61-1.85,3.77-1.15,5.66-1.7S165.19,218.69,167.11,218.17Z" style="fill: rgb(38, 50, 56); transform-origin: 155.81px 221.735px;" id="elw21yv3u5bh" class="animable"></path><path d="M164.09,213.27a36.9,36.9,0,0,0-9.4,2,36.47,36.47,0,0,0-8.66,4.19c3-1.08,6-2.21,9-3.22S161,214.26,164.09,213.27Z" style="fill: rgb(38, 50, 56); transform-origin: 155.06px 216.365px;" id="els3x79ha98sk" class="animable"></path><path d="M181.42,200.21,216,217.1s18.05-71.62,20.28-96.72-7.42-19.33-14.08-7.54C213.06,129,181.42,200.21,181.42,200.21Z" style="fill: rgb(255, 188, 0); transform-origin: 209.014px 159.934px;" id="elzg2jvyq2upf" class="animable"></path><g id="elgph1ipu1p8h"><path d="M181.42,200.21,216,217.1s18.05-71.62,20.28-96.72-7.42-19.33-14.08-7.54C213.06,129,181.42,200.21,181.42,200.21Z" style="fill: rgb(255, 255, 255); opacity: 0.5; transform-origin: 209.014px 159.934px;" class="animable"></path></g><path d="M215.15,208.32c-4.71-1.91-23.68-10.42-27.65-12.54-.27-.15-.25-.36.06-.24,14.23,5.38,23.14,10.49,27.66,12.59C215.33,208.19,215.27,208.37,215.15,208.32Z" style="fill: rgb(38, 50, 56); transform-origin: 201.295px 201.917px;" id="elkamw6d8nths" class="animable"></path><path d="M228,167.61c.51-3.7,1.15-7.37,1.82-11s1.38-7.33,2.13-11,1.54-7.3,2.4-10.93l1.29-5.44c.48-1.81.91-3.62,1.42-5.42-.24,1.86-.56,3.69-.85,5.54l-1,5.51c-.65,3.67-1.39,7.32-2.13,11s-1.54,7.29-2.4,10.92S229,164,228,167.61Z" style="fill: rgb(38, 50, 56); transform-origin: 232.53px 145.715px;" id="elouevpzfab7" class="animable"></path><path d="M235.13,133.31a13.11,13.11,0,0,1,1.11-2.74,12.87,12.87,0,0,1,1.63-2.47,13.73,13.73,0,0,1-1.1,2.75A13.17,13.17,0,0,1,235.13,133.31Z" style="fill: rgb(38, 50, 56); transform-origin: 236.5px 130.705px;" id="eln0rblcz1kxd" class="animable"></path><path d="M248.53,112.89s-14.31-8.35-21-7.12l-4.93,5.89s-1.78.9-2.53-.2c-1.86-2.71-3.2-9.75,2.2-15.25,5-5,16.52-5.88,24.43-5,7.6.84,12.27,4.55,10.73,9.65S248.53,112.89,248.53,112.89Z" style="fill: rgb(255, 188, 0); transform-origin: 238.08px 101.9px;" id="elsztbe2xsxzb" class="animable"></path><g id="el09k6985obj0l"><path d="M248.53,112.89s-14.31-8.35-21-7.12l-4.93,5.89s-1.78.9-2.53-.2c-1.86-2.71-3.2-9.75,2.2-15.25,5-5,16.52-5.88,24.43-5,7.6.84,12.27,4.55,10.73,9.65S248.53,112.89,248.53,112.89Z" style="fill: rgb(255, 255, 255); opacity: 0.5; transform-origin: 238.08px 101.9px;" class="animable"></path></g><path d="M248.93,110.54s5-7,5.37-10.69-7.28-6-12.07-6.66c-7.41-1-12.18.17-15.6,4.56S248.93,110.54,248.93,110.54Z" style="fill: rgb(255, 188, 0); transform-origin: 240.315px 101.698px;" id="elylsya0xxzm" class="animable"></path><path d="M248.93,110.54S236.08,98,225.53,98.12l2,7.65s8.65-1.13,21,7.12Z" style="fill: rgb(255, 188, 0); transform-origin: 237.23px 105.505px;" id="elk9q9sdunhrs" class="animable"></path><g id="elm8iciw06d1a"><path d="M248.93,110.54S236.08,98,225.53,98.12l2,7.65s8.65-1.13,21,7.12Z" style="fill: rgb(255, 255, 255); opacity: 0.5; transform-origin: 237.23px 105.505px;" class="animable"></path></g><path d="M224.78,106.33a13.23,13.23,0,0,1,5.67-.08c7.35.62,15.46,5.39,15.46,5.39l2.37,1.61.26.18.24-.18c3.2-2.4,6-7.31,6.57-8.27a46.66,46.66,0,0,1-7.06,7.55h.5l-2.38-1.67c-.81-.53-9.52-4.57-15.89-5.15a14.13,14.13,0,0,0-1.45-.1c-.49,0-1,0-1.46.06A8.58,8.58,0,0,0,224.78,106.33Z" style="fill: rgb(38, 50, 56); transform-origin: 240.065px 109.205px;" id="elp99m839xo8n" class="animable"></path><path d="M222.62,111.66a27.93,27.93,0,0,0,2.65-2.79,29.09,29.09,0,0,0,2.28-3.1,32.56,32.56,0,0,0-4.93,5.89Z" style="fill: rgb(38, 50, 56); transform-origin: 225.085px 108.715px;" id="elj4o9k41utbq" class="animable"></path><path d="M246,108.85a57.59,57.59,0,0,0-.33,10c.11,2.32,1.55,10.56,4.11,10.09s-2-5.55-3-9.88-.07-7.61-.09-10.24Z" style="fill: rgb(255, 188, 0); transform-origin: 248.068px 118.89px;" id="el0an8p7kj00c9" class="animable"></path><path d="M252.34,108.25a52.72,52.72,0,0,1,3.68,8.31c.7,2,2.29,9.47,0,10s-.21-5.38-.81-9.4-2.54-6.47-3.42-8.71Z" style="fill: rgb(255, 188, 0); transform-origin: 254.501px 117.422px;" id="el4dcp4y406pp" class="animable"></path><path d="M237.09,100.79c.29,1.22,6.52,6.77,12.13,6.48,1.82-.09,1.41-7.69,1.41-7.69l.16-.74,2.27-10.35-12.18-7.74-1.76-1s-.43,2.87-.94,6.46c0,.16-.05.33-.07.51s-.07.39-.09.58c-.08.53-.16,1.08-.23,1.63s-.11.81-.16,1.25-.09.86-.15,1.3A67.63,67.63,0,0,0,237.09,100.79Z" style="fill: rgb(211, 118, 106); transform-origin: 245.063px 93.5155px;" id="elzcpo1c7dbwj" class="animable"></path><path d="M238.18,86.18a21.27,21.27,0,0,0,12.61,12.66l2.27-10.35-12.18-7.74-1.76-1S238.69,82.59,238.18,86.18Z" style="fill: rgb(38, 50, 56); transform-origin: 245.62px 89.295px;" id="el2e9qy5qffgd" class="animable"></path><path d="M266,70.71c5.07,17.9-5.08,23-8.94,24-3.5,1-15.55,3.91-22.45-13.36s-.17-25.29,7.72-28S261,52.82,266,70.71Z" style="fill: rgb(211, 118, 106); transform-origin: 249.565px 73.9598px;" id="elqryai6hjnx7" class="animable"></path><path d="M260.46,70c-.43,0-.84,0-1.28,0a2.05,2.05,0,0,1-1.31-.26.64.64,0,0,1-.16-.79,1.63,1.63,0,0,1,1.5-.7,2.43,2.43,0,0,1,1.66.52A.71.71,0,0,1,260.46,70Z" style="fill: rgb(38, 50, 56); transform-origin: 259.369px 69.1307px;" id="elr7jit4scx" class="animable"></path><path d="M247.69,72.48a12.42,12.42,0,0,0,1.18-.52,2.08,2.08,0,0,0,1.1-.75.66.66,0,0,0-.17-.79,1.64,1.64,0,0,0-1.66,0,2.39,2.39,0,0,0-1.31,1.15A.71.71,0,0,0,247.69,72.48Z" style="fill: rgb(38, 50, 56); transform-origin: 248.414px 71.3497px;" id="el8ug2xov3ehu" class="animable"></path><path d="M251.11,75.42s-.08.08-.07.13c.33,1.23.5,2.68-.52,3.35,0,0,0,.08,0,.07C251.86,78.46,251.61,76.53,251.11,75.42Z" style="fill: rgb(38, 50, 56); transform-origin: 251.016px 77.1954px;" id="elr3tug68c7us" class="animable"></path><path d="M249.71,74.39c-2,.31-1.25,4.33.62,4S251.4,74.13,249.71,74.39Z" style="fill: rgb(38, 50, 56); transform-origin: 249.965px 76.3934px;" id="ely8dbaxg9pel" class="animable"></path><path d="M249,74.75c-.31.3-.57.77-1,.89s-.93-.21-1.33-.55c0,0-.06,0-.06.06.14.77.59,1.5,1.44,1.46s1.18-.83,1.22-1.64C249.25,74.82,249.08,74.64,249,74.75Z" style="fill: rgb(38, 50, 56); transform-origin: 247.94px 75.6638px;" id="elw8i9dx4jk1g" class="animable"></path><path d="M258.41,73.06s.11,0,.12.1c.19,1.25.62,2.65,1.82,2.86,0,0,0,.07,0,.07C259,76.15,258.39,74.28,258.41,73.06Z" style="fill: rgb(38, 50, 56); transform-origin: 259.38px 74.5757px;" id="eli9xxf5129u7" class="animable"></path><path d="M259.29,71.56c2-.52,2.87,3.46,1,4S257.63,72,259.29,71.56Z" style="fill: rgb(38, 50, 56); transform-origin: 259.854px 73.5611px;" id="elr75tn1f1erk" class="animable"></path><path d="M260.18,71.63c.36.14.76.46,1.14.4s.67-.58.85-1c0,0,.06,0,.07,0a1.55,1.55,0,0,1-.57,1.92c-.64.28-1.28-.26-1.63-1C260,71.82,260,71.58,260.18,71.63Z" style="fill: rgb(38, 50, 56); transform-origin: 261.195px 72.0276px;" id="el8n4ozqpbjk" class="animable"></path><path d="M254,85.5c.34.25.7.61,1.16.58a3.34,3.34,0,0,0,1.3-.51s.09,0,.07.05a1.73,1.73,0,0,1-1.49.92,1.36,1.36,0,0,1-1.15-1C253.89,85.5,254,85.46,254,85.5Z" style="fill: rgb(38, 50, 56); transform-origin: 255.211px 86.0117px;" id="elirpybcnv73s" class="animable"></path><path d="M258.3,80s.63,1.8.81,2.68c0,.08-.18.16-.48.24h0a4.25,4.25,0,0,1-4.35-.73c-.08-.07,0-.18.1-.15a6.39,6.39,0,0,0,4,.31c0-.25-1.19-3-1.06-3.08a7.71,7.71,0,0,1,2.08,0c-1.22-3.79-3-7.35-4.18-11.14,0-.14.15-.22.21-.1a64,64,0,0,1,5,11.8C260.61,80.32,258.68,80,258.3,80Z" style="fill: rgb(38, 50, 56); transform-origin: 257.345px 75.5968px;" id="ellbjruzctkw8" class="animable"></path><path d="M258.48,82.56a5.16,5.16,0,0,1-1.57,2.07,2.27,2.27,0,0,1-1.34.45c-1,0-1.31-.89-1.34-1.7a5.55,5.55,0,0,1,.13-1.3A6.6,6.6,0,0,0,258.48,82.56Z" style="fill: rgb(38, 50, 56); transform-origin: 256.355px 83.58px;" id="ele6hu1ifavjn" class="animable"></path><path d="M256.91,84.63a2.27,2.27,0,0,1-1.34.45c-1,0-1.31-.89-1.34-1.7A2.4,2.4,0,0,1,256.91,84.63Z" style="fill: rgb(255, 154, 187); transform-origin: 255.57px 84.1991px;" id="elio4bpqdk26a" class="animable"></path><path d="M236.32,82.13c3.79-1.06,1.65-9.8,1.65-9.8s2-1.44,3.5-6.5c0,0-.77,4.24-2.88,6.46-.35.38,12.34-4.4,10.92-14.71,0,0,5.27,7.78,15.12,8.33.31,0-3.25-8.74-5.73-10.34a19.83,19.83,0,0,0-4.58-2.23,19.35,19.35,0,0,0-14.62.09C232,56.72,229,66.52,229.3,70.14,229.91,77.24,234.52,82.63,236.32,82.13Z" style="fill: rgb(38, 50, 56); transform-origin: 246.964px 67.0564px;" id="elo4l9cb0b1yp" class="animable"></path><path d="M239.06,72.4c7-2.2,11.49-8.24,10.15-15.66a.17.17,0,0,1,.32-.08c2.92,7.11-3.62,14.63-10.5,15.88C238.87,72.57,238.9,72.45,239.06,72.4Z" style="fill: rgb(38, 50, 56); transform-origin: 244.584px 64.5574px;" id="elswwmp6q48wm" class="animable"></path><path d="M249.32,57.3a0,0,0,0,1,.07,0c2.82,3.25,6.42,9.38,11.66,7.71a.11.11,0,1,1,.08.21C256.25,67.24,250.93,61.39,249.32,57.3Z" style="fill: rgb(38, 50, 56); transform-origin: 255.262px 61.466px;" id="elclbvzlr2inn" class="animable"></path><path d="M238,80.29s-5.08-4.94-7.4-3,2.27,9.61,5.53,10.15A3.14,3.14,0,0,0,239.92,85Z" style="fill: rgb(211, 118, 106); transform-origin: 234.945px 82.1801px;" id="el3hurldzb8bu" class="animable"></path><path d="M231.94,79.44c-.05,0,0,.08,0,.08,2.3.46,3.8,2.22,5,4.12a1.73,1.73,0,0,0-2.64,0s0,.13.08.1a2,2,0,0,1,2.22.26,10,10,0,0,1,1.33,1.5c.13.17.46,0,.34-.2l0,0C237.75,82.55,234.91,79.15,231.94,79.44Z" style="fill: rgb(38, 50, 56); transform-origin: 235.107px 82.4962px;" id="eltlzd7kvm2s" class="animable"></path></g><defs>     <filter id="active" height="200%">         <feMorphology in="SourceAlpha" result="DILATED" operator="dilate" radius="2"></feMorphology>                <feFlood flood-color="#32DFEC" flood-opacity="1" result="PINK"></feFlood>        <feComposite in="PINK" in2="DILATED" operator="in" result="OUTLINE"></feComposite>        <feMerge>            <feMergeNode in="OUTLINE"></feMergeNode>            <feMergeNode in="SourceGraphic"></feMergeNode>        </feMerge>    </filter>    <filter id="hover" height="200%">        <feMorphology in="SourceAlpha" result="DILATED" operator="dilate" radius="2"></feMorphology>                <feFlood flood-color="#ff0000" flood-opacity="0.5" result="PINK"></feFlood>        <feComposite in="PINK" in2="DILATED" operator="in" result="OUTLINE"></feComposite>        <feMerge>            <feMergeNode in="OUTLINE"></feMergeNode>            <feMergeNode in="SourceGraphic"></feMergeNode>        </feMerge>            <feColorMatrix type="matrix" values="0   0   0   0   0                0   1   0   0   0                0   0   0   0   0                0   0   0   1   0 "></feColorMatrix>    </filter></defs></svg>